<svg xmlns="http://www.w3.org/2000/svg" width="800" height="500" viewBox="0 0 800 500">
<defs><linearGradient id="bg" x1="0%" y1="0%" x2="100%" y2="100%"><stop offset="0%" stop-color="#1b2d3a"/><stop offset="100%" stop-color="#0a1520"/></linearGradient></defs>
<rect width="800" height="500" fill="url(#bg)"/>
<rect x="360" y="155" width="80" height="55" rx="4" fill="none" stroke="#D4B45C" stroke-width="2" opacity=".4"/>
<line x1="370" y1="175" x2="430" y2="175" stroke="#D4B45C" stroke-width="1" opacity=".2"/>
<rect x="370" y="165" width="20" height="5" rx="1" fill="#D4B45C" opacity=".2"/>
<rect x="395" y="165" width="12" height="5" rx="1" fill="#D4B45C" opacity=".15"/>
<rect x="370" y="180" width="50" height="3" rx="1" fill="#D4B45C" opacity=".1"/>
<rect x="370" y="187" width="35" height="3" rx="1" fill="#D4B45C" opacity=".1"/>
<rect x="370" y="194" width="45" height="3" rx="1" fill="#D4B45C" opacity=".1"/>
<path d="M370 230 L385 220 L400 225 L415 215 L430 218" fill="none" stroke="#D4B45C" stroke-width="1.5" opacity=".3"/>
<text x="400" y="310" text-anchor="middle" fill="#ffffff" font-family="Georgia,serif" font-size="36" font-weight="bold">TechVision Pro</text>
<text x="400" y="345" text-anchor="middle" fill="#D4B45C" font-family="Arial,sans-serif" font-size="15" font-weight="600">SAAS &amp; LANDING PAGE</text>
<text x="400" y="375" text-anchor="middle" fill="#b0b0bc" font-family="Arial,sans-serif" font-size="13">Startup technologique — Nantes</text>
<line x1="340" y1="395" x2="460" y2="395" stroke="#D4B45C" stroke-width="1.5" opacity=".4"/>
<text x="280" y="440" text-anchor="middle" fill="#D4B45C" font-family="Arial,sans-serif" font-size="22" font-weight="bold">8.7%</text>
<text x="280" y="460" text-anchor="middle" fill="#b0b0bc" font-family="Arial,sans-serif" font-size="11">conversion</text>
<text x="400" y="440" text-anchor="middle" fill="#D4B45C" font-family="Arial,sans-serif" font-size="22" font-weight="bold">+520%</text>
<text x="400" y="460" text-anchor="middle" fill="#b0b0bc" font-family="Arial,sans-serif" font-size="11">MRR</text>
<text x="520" y="440" text-anchor="middle" fill="#D4B45C" font-family="Arial,sans-serif" font-size="22" font-weight="bold">2 300</text>
<text x="520" y="460" text-anchor="middle" fill="#b0b0bc" font-family="Arial,sans-serif" font-size="11">leads/mois</text>
</svg>
